# xmcd CD database file
#
# Track frame offsets:
#	150
#	15412
#	31875
#	46612
#	63930
#	78570
#	93290
#	108470
#	122042
#	140310
#	156477
#	172027
#	186940
#	202477
#	219602
#	235652
#	252500
#	266040
#	281580
#	297555
#
# Disc length: 4194 seconds
#
# Revision: 0
# Processed by: cddbd v1.5.1PL2 Copyright (c) Steve Scherf et al.
# Submitted via: CDex 1.51
#
DISCID=2d106014
DTITLE=Various Artist - THE BEST OF TECHNO TRAX... TECNO HOUSE REVOLUTION VI
DYEAR=1994
DGENRE=Techno
TTITLE0=I LIKE IT (GIVE IT TO ME)
TTITLE1=YUM YUM
TTITLE2=MAKE IT TOGETHER
TTITLE3=ALLRIGHT
TTITLE4=IBIZA
TTITLE5=IN GALERA!
TTITLE6=I WANT YOU
TTITLE7=WE LOVE IT
TTITLE8=GIVE IT TO ME
TTITLE9=POMP IT UP
TTITLE10=I WANNA FEEL THE MUSIC
TTITLE11=SHAKE THAT
TTITLE12=I FEEL FREE
TTITLE13=IN THE NAME OF LOVE
TTITLE14=SET YOUR BODY FREE
TTITLE15=X
TTITLE16=LOVE POWER
TTITLE17=I GOTTA MOVE
TTITLE18=GOING 2 DANCE (STARR GAZER MIX)
TTITLE19=EZ DO DANCE (KAMOFLAGE REMIX)
EXTD=YEAR: 1994
EXTT0=
EXTT1=
EXTT2=
EXTT3=
EXTT4=
EXTT5=
EXTT6=
EXTT7=
EXTT8=
EXTT9=
EXTT10=
EXTT11=
EXTT12=
EXTT13=
EXTT14=
EXTT15=
EXTT16=
EXTT17=
EXTT18=
EXTT19=
PLAYORDER=
